<?xml version="1.0" encoding="UTF-8" standalone="no"?>
<!-- Created with Inkscape (http://www.inkscape.org/) -->

<svg
   width="111.71103mm"
   height="97.470009mm"
   viewBox="0 0 111.71103 97.470009"
   version="1.1"
   id="svg21577"
   xml:space="preserve"
   xmlns:inkscape="http://www.inkscape.org/namespaces/inkscape"
   xmlns:sodipodi="http://sodipodi.sourceforge.net/DTD/sodipodi-0.dtd"
   xmlns="http://www.w3.org/2000/svg"
   xmlns:svg="http://www.w3.org/2000/svg"><sodipodi:namedview
     id="namedview21579"
     pagecolor="#ffffff"
     bordercolor="#000000"
     borderopacity="0.25"
     inkscape:showpageshadow="2"
     inkscape:pageopacity="0.0"
     inkscape:pagecheckerboard="0"
     inkscape:deskcolor="#d1d1d1"
     inkscape:document-units="mm"
     showgrid="false" /><defs
     id="defs21574" /><g
     inkscape:label="Layer 1"
     inkscape:groupmode="layer"
     id="layer1"
     transform="translate(-79.835786,-106.42782)"><g
       inkscape:label="Heart_Logo"
       id="g22097"
       transform="matrix(2.4840959,0,0,2.4840959,261.35916,-2724.2685)"
       inkscape:export-filename="MZBOT_VORON_Logo.svg"
       inkscape:export-xdpi="96"
       inkscape:export-ydpi="96"
       style="display:inline;fill:#ff0000;fill-opacity:1;stroke:#000000;stroke-opacity:1"><path
         id="path0"
         style="display:none;fill:#ed3023;fill-opacity:1;stroke:none;stroke-width:0.27902;stroke-opacity:1"
         inkscape:label="Heart"
         d="m 112.35851,106.42764 c -2.72604,0.002 -5.38266,0.31033 -7.81089,0.95343 -21.25769,5.62978 -30.930713,29.11819 -20.474719,49.71686 6.354404,12.51792 23.174669,28.64708 45.397229,43.53222 6.46432,4.33013 6.12825,4.32544 12.31553,0.17364 20.59421,-13.81905 37.52725,-29.52691 44.17353,-40.97735 10.42056,-17.95298 5.88461,-39.21438 -10.43192,-48.89469 -11.13234,-6.6044 -27.28628,-5.78971 -37.33881,1.88361 -2.50646,1.91297 -2.4327,1.91359 -4.97179,-0.0351 -5.25212,-4.03133 -13.3214,-6.35927 -20.85816,-6.35258 z m 6.72827,13.21159 h 13.55163 l -17.2744,29.91911 H 101.8129 Z m 27.10274,0 h 13.55163 l -34.54828,59.83873 h -13.55111 z m 9.82886,29.91911 h 13.55163 l -17.2744,29.91962 H 138.7445 Z"
         transform="matrix(0.40256095,0,0,0.40256095,-105.21299,1096.6841)"
         inkscape:export-filename="Heart_Logo.svg"
         inkscape:export-xdpi="96"
         inkscape:export-ydpi="96" /><path
         id="path23659"
         d="m 104.54777,107.38125 c -21.257753,5.62981 -30.930849,29.11778 -20.474822,49.71651 6.354422,12.51798 23.174362,28.64708 45.396982,43.53228 6.46435,4.33013 6.12869,4.32539 12.31597,0.17356 20.59427,-13.81908 37.52721,-29.52683 44.17349,-40.9773 10.42059,-17.95304 5.88427,-39.21444 -10.43232,-48.89478 -11.13237,-6.60443 -27.28629,-5.78941 -37.33885,1.88394 -2.50646,1.91297 -2.43251,1.91353 -4.9716,-0.0352 -7.15186,-5.48947 -19.52728,-7.82012 -28.66885,-5.39906"
         stroke="none"
         fill="#000000"
         fill-rule="evenodd"
         style="display:inline;fill:#ed3023;fill-opacity:1;stroke:none;stroke-width:0.27902;stroke-opacity:1"
         sodipodi:nodetypes="ccccscccc"
         transform="matrix(0.40256095,0,0,0.40256095,-105.21299,1096.6841)"
         inkscape:label="Heart" /><path
         d="m -42.406057,1156.8905 h 5.455278 l -6.953846,12.0444 h -5.455278 z"
         style="display:inline;fill:#ffffff;fill-opacity:1;stroke:none;stroke-opacity:1"
         id="path23661" /><path
         d="m -64.22717,1156.8905 6.953846,-12.0444 h 5.455279 l -6.953846,12.0444 z"
         style="display:inline;fill:#ffffff;fill-opacity:1;stroke:none;stroke-opacity:1"
         id="path23663" /><path
         d="m -40.907489,1144.8461 -13.907692,24.0888 h -5.455278 l 13.907692,-24.0888 z"
         style="display:inline;fill:#ffffff;fill-opacity:1;stroke:none;stroke-opacity:1"
         id="path23665" /></g></g></svg>
